<svg width="96" height="96" viewBox="0 0 96 96" fill="none" xmlns="http://www.w3.org/2000/svg">
<rect width="3" height="96" fill="white"/>
<rect x="93" width="3" height="58" fill="white"/>
<rect x="93" y="63" width="3" height="20" fill="#E9204F"/>
<rect x="90" y="63" width="3" height="3" fill="#E9204F"/>
<rect x="93" y="88" width="3" height="8" fill="white"/>
<rect x="1" y="93" width="94" height="3" fill="white"/>
<rect x="1" width="94" height="3" fill="white"/>
<path d="M33.2344 28.168V26.168H31.2344V28.168H33.2344ZM63.1172 43.4023L61.2621 42.6548L61.2573 42.6668L61.2527 42.6788L63.1172 43.4023ZM57.3164 48.2656L56.961 46.2974L55.3164 46.5944V48.2656H57.3164ZM57.3164 48.5586H55.3164V50.1894L56.9139 50.5177L57.3164 48.5586ZM61.1836 50.082L60.121 51.7764L60.1314 51.7829L60.1419 51.7893L61.1836 50.082ZM63.9375 53.1875L62.1486 54.0819L62.1564 54.0973L62.1643 54.1126L63.9375 53.1875ZM57.6387 69.5352L58.4079 71.3813L58.4155 71.3781L57.6387 69.5352ZM33.2344 71H31.2344V73H33.2344V71ZM42.3164 45.1309H40.3164V47.1309H42.3164V45.1309ZM53.0684 43.9004L54.325 45.4563L54.334 45.449L54.3429 45.4417L53.0684 43.9004ZM52.7754 36.6934L51.7382 38.4034L51.7545 38.4133L51.7711 38.4229L52.7754 36.6934ZM42.3164 35.6094V33.6094H40.3164V35.6094H42.3164ZM42.3164 52.3379V50.3379H40.3164V52.3379H42.3164ZM42.3164 63.5H40.3164V65.5H42.3164V63.5ZM54.8555 54.8867L56.5815 53.8764L54.8555 54.8867ZM52.4824 53.0117L51.7226 54.8618L51.734 54.8664L52.4824 53.0117ZM33.2344 30.168H46.5645V26.168H33.2344V30.168ZM46.5645 30.168C52.1397 30.168 56.0588 30.961 58.5543 32.3252L60.473 28.8154C57.1092 26.9765 52.3954 26.168 46.5645 26.168V30.168ZM58.5543 32.3252C60.6996 33.498 61.9082 35.537 61.9082 39.0078H65.9082C65.9082 34.4318 64.1871 30.8458 60.473 28.8154L58.5543 32.3252ZM61.9082 39.0078C61.9082 40.4105 61.6806 41.6165 61.2621 42.6548L64.9722 44.1499C65.6085 42.571 65.9082 40.8473 65.9082 39.0078H61.9082ZM61.2527 42.6788C60.8528 43.7092 60.2921 44.5019 59.5865 45.1086L62.1947 48.1414C63.4423 47.0684 64.366 45.7126 64.9817 44.1259L61.2527 42.6788ZM59.5865 45.1086C58.9091 45.6912 58.0558 46.0998 56.961 46.2974L57.6718 50.2338C59.3895 49.9237 60.919 49.2385 62.1947 48.1414L59.5865 45.1086ZM55.3164 48.2656V48.5586H59.3164V48.2656H55.3164ZM56.9139 50.5177C58.1221 50.7659 59.1849 51.1894 60.121 51.7764L62.2462 48.3876C60.8776 47.5294 59.3623 46.9372 57.719 46.5995L56.9139 50.5177ZM60.1419 51.7893C60.9329 52.272 61.6101 53.0048 62.1486 54.0819L65.7264 52.2931C64.8977 50.6358 63.7389 49.2983 62.2253 48.3748L60.1419 51.7893ZM62.1643 54.1126C62.6643 55.0708 62.9922 56.5121 62.9922 58.5781H66.9922C66.9922 56.152 66.617 53.9995 65.7107 52.2624L62.1643 54.1126ZM62.9922 58.5781C62.9922 60.8372 62.4453 62.6552 61.4373 64.1284L64.7385 66.3872C66.2695 64.1495 66.9922 61.5143 66.9922 58.5781H62.9922ZM61.4373 64.1284C60.4138 65.6242 58.9226 66.8236 56.8619 67.6922L58.4155 71.3781C61.0813 70.2545 63.2229 68.6023 64.7385 66.3872L61.4373 64.1284ZM56.8694 67.689C54.8268 68.5401 52.3081 69 49.2598 69V73C52.6959 73 55.7631 72.4833 58.4079 71.3813L56.8694 67.689ZM49.2598 69H33.2344V73H49.2598V69ZM35.2344 71V28.168H31.2344V71H35.2344ZM42.3164 47.1309H47.5898V43.1309H42.3164V47.1309ZM47.5898 47.1309C50.2924 47.1309 52.7368 46.7391 54.325 45.4563L51.8117 42.3445C51.3687 42.7023 50.1607 43.1309 47.5898 43.1309V47.1309ZM54.3429 45.4417C55.9225 44.1355 56.5918 42.276 56.5918 40.209H52.5918C52.5918 41.3842 52.2455 41.9856 51.7938 42.3591L54.3429 45.4417ZM56.5918 40.209C56.5918 38.001 55.7232 36.0923 53.7797 34.9638L51.7711 38.4229C52.2495 38.7007 52.5918 39.1357 52.5918 40.209H56.5918ZM53.8126 34.9833C52.1395 33.9685 49.7874 33.6094 47.0918 33.6094V37.6094C49.5915 37.6094 51.0285 37.9729 51.7382 38.4034L53.8126 34.9833ZM47.0918 33.6094H42.3164V37.6094H47.0918V33.6094ZM40.3164 35.6094V45.1309H44.3164V35.6094H40.3164ZM40.3164 52.3379V63.5H44.3164V52.3379H40.3164ZM42.3164 65.5H48.2344V61.5H42.3164V65.5ZM48.2344 65.5C51.1048 65.5 53.6933 64.9702 55.3484 63.3451L52.5461 60.4908C52.0528 60.9751 50.8327 61.5 48.2344 61.5V65.5ZM55.3484 63.3451C56.8744 61.8469 57.5586 59.8795 57.5586 57.6699H53.5586C53.5586 59.0151 53.1686 59.8797 52.5461 60.4908L55.3484 63.3451ZM57.5586 57.6699C57.5586 56.3095 57.2531 55.0237 56.5815 53.8764L53.1294 55.8971C53.3954 56.3513 53.5586 56.9209 53.5586 57.6699H57.5586ZM56.5815 53.8764C55.8311 52.5944 54.633 51.7228 53.2308 51.157L51.734 54.8664C52.5584 55.1991 52.9424 55.5775 53.1294 55.8971L56.5815 53.8764ZM53.2423 51.1617C51.8023 50.5703 49.9909 50.3379 47.9414 50.3379V54.3379C49.7591 54.3379 50.975 54.5547 51.7226 54.8618L53.2423 51.1617ZM47.9414 50.3379H42.3164V54.3379H47.9414V50.3379Z" fill="white"/>
</svg>
