<svg width="96" height="96" viewBox="0 0 96 96" fill="none" xmlns="http://www.w3.org/2000/svg">
<path d="M27.875 14.4688H49.2031C58.3281 14.4688 65.2344 15.75 69.9219 18.3125C74.6094 20.875 76.9531 25.375 76.9531 31.8125C76.9531 34.4062 76.5312 36.75 75.6875 38.8438C74.875 40.9375 73.6875 42.6562 72.125 44C70.5625 45.3438 68.6562 46.2188 66.4062 46.625V47.0938C68.6875 47.5625 70.75 48.375 72.5938 49.5312C74.4375 50.6562 75.9062 52.3125 77 54.5C78.125 56.6562 78.6875 59.5312 78.6875 63.125C78.6875 67.2812 77.6719 70.8438 75.6406 73.8125C73.6094 76.7812 70.7031 79.0625 66.9219 80.6562C63.1719 82.2188 58.7031 83 53.5156 83H27.875V14.4688ZM42.4062 41.6094H50.8438C55.0625 41.6094 57.9844 40.9531 59.6094 39.6406C61.2344 38.2969 62.0469 36.3281 62.0469 33.7344C62.0469 31.1094 61.0781 29.2344 59.1406 28.1094C57.2344 26.9531 54.2031 26.375 50.0469 26.375H42.4062V41.6094ZM42.4062 53.1406V71H51.875C56.25 71 59.2969 70.1562 61.0156 68.4688C62.7344 66.7812 63.5938 64.5156 63.5938 61.6719C63.5938 59.9844 63.2188 58.5 62.4688 57.2188C61.7188 55.9375 60.4531 54.9375 58.6719 54.2188C56.9219 53.5 54.5 53.1406 51.4062 53.1406H42.4062Z" fill="#202020"/>
<path fill-rule="evenodd" clip-rule="evenodd" d="M27.5215 14.4668L13 27.166L20.8995 36.1991L36.1168 22.8915L28.7493 14.4668H27.5215Z" fill="#202020"/>
<path fill-rule="evenodd" clip-rule="evenodd" d="M22.2219 37.7088L28.5331 32.1896L27.2165 30.6841L20.9053 36.2033L22.2219 37.7088Z" fill="#E9204F"/>
<path fill-rule="evenodd" clip-rule="evenodd" d="M27 30.8643L29 29.1152V83H27V30.8643Z" fill="#E9204F"/>
</svg>
